HIERARCHY
ROOT Hips
{
  OFFSET 33.533 98.4653 19.5067
  CHANNELS 6 Xposition Yposition Zposition Zrotation Xrotation Yrotation
  JOINT RightUpLeg
  {
    OFFSET -8.9458 -8.66707 0.101652
    CHANNELS 3 Zrotation Xrotation Yrotation
    JOINT RightLeg
    {
      OFFSET 0 -44.4227 1.3727
      CHANNELS 3 Zrotation Xrotation Yrotation
      JOINT RightFoot
      {
        OFFSET 0.253549 -42.0924 -1.46059
        CHANNELS 3 Zrotation Xrotation Yrotation
        JOINT RightToes
        {
          OFFSET 0.04 -4.41509 8.4991
          CHANNELS 3 Zrotation Xrotation Yrotation
          End Site
          {
            OFFSET -0.08 -0.137448 9.77979
          }
        }
      }
    }
  }
  JOINT Spine
  {
    OFFSET 0 11.8905 0
    CHANNELS 3 Zrotation Xrotation Yrotation
    JOINT Spine1
    {
      OFFSET 0 25.6574 0.127663
      CHANNELS 3 Zrotation Xrotation Yrotation
      JOINT HEad
      {
        OFFSET 0 8.73416 0.011341
        CHANNELS 3 Zrotation Xrotation Yrotation
        End Site
        {
          OFFSET -0.29 12.7742 2.51395
        }
      }
      JOINT LeftShoulder1
      {
        OFFSET 8.99 -0.362252 -0.22
        CHANNELS 3 Zrotation Xrotation Yrotation
        JOINT LeftArm
        {
          OFFSET 10.2827 -0.00338 0.322123
          CHANNELS 3 Zrotation Xrotation Yrotation
          JOINT LeftForeArm
          {
            OFFSET 32.7669 0.099144 -1.42434
            CHANNELS 3 Zrotation Xrotation Yrotation
            JOINT LeftHand
            {
              OFFSET 27.5643 0.085362 1.02216
              CHANNELS 3 Zrotation Xrotation Yrotation
              End Site
              {
                OFFSET 16.7443 -0.6 1.50291
              }
            }
          }
        }
      }
      JOINT RightShoulder
      {
        OFFSET -8.99 -0.362252 -0.22
        CHANNELS 3 Zrotation Xrotation Yrotation
        JOINT RightArm
        {
          OFFSET -10.2827 -0.00338 0.322123
          CHANNELS 3 Zrotation Xrotation Yrotation
          JOINT RightForeArm
          {
            OFFSET -32.8971 0.099144 -1.42434
            CHANNELS 3 Zrotation Xrotation Yrotation
            JOINT RightHand
            {
              OFFSET -27.4921 0.085362 1.02216
              CHANNELS 3 Zrotation Xrotation Yrotation
              End Site
              {
                OFFSET -16.6312 -0.6 1.50291
              }
            }
          }
        }
      }
    }
  }
  JOINT LeftUpLeg
  {
    OFFSET 8.9458 -8.66707 0.101652
    CHANNELS 3 Zrotation Xrotation Yrotation
    JOINT LeftLeg
    {
      OFFSET 0 -44.4227 1.3727
      CHANNELS 3 Zrotation Xrotation Yrotation
      JOINT LeftFoot
      {
        OFFSET -0.253549 -42.0924 -1.46059
        CHANNELS 3 Zrotation Xrotation Yrotation
        JOINT LeftToes
        {
          OFFSET -0.04 -4.41509 8.4991
          CHANNELS 3 Zrotation Xrotation Yrotation
          End Site
          {
            OFFSET 0.08 -0.047448 9.77979
          }
        }
      }
    }
  }
}
MOTION
Frames:	19
Frame Time:	0.0166667
42.0642 99.4209 -5.76986 5.45778 56.6729 -121.064 -21.2621 -14.7739 -8.13605 86.1238 13.3236 -86.5488 -35.9449 13.9598 -8.47697 0.0462048 0.000533403 0.662642 9.35907 28.4943 -12.6732 -0.01256 -0.00019998 0.0018403 15.3647 9.69937 -30.2905 -6.36111e-015 0 3.18055e-015 -69.946 18.9882 -59.3606 -12.495 32.8288 -84.19 22.5895 18.6785 -1.96166 39.4562 7.4664 -6.76655 50.0069 -45.4073 18.8661 -19.7039 22.1364 54.756 17.2957 20.2947 -8.76447 65.3104 -0.694188 -28.0344 -40.0011 27.4899 81.059 -26.0303 -2.97301 -3.43655 2.14852e-009 1.56018e-007 -4.87131e-009 
41.812 99.1785 -4.62387 3.67743 53.3415 -122.977 -20.4886 -13.4398 -9.40048 86.3674 18.6816 -84.4178 -34.285 14.9443 -9.2779 0.0462048 0.000533403 0.662642 7.21103 28.0669 -11.6215 -0.0150899 -0.000829983 0.00253037 16.2063 9.97714 -32.2362 -3.18055e-015 3.18055e-015 -0 -72.232 18.3217 -59.0367 -11.8807 32.4142 -84.5656 22.2718 18.6383 -1.94464 37.1999 7.92596 -6.58988 52.4562 -47.6273 22.7952 -16.9376 23.5555 63.1062 14.0003 21.4872 -7.96148 60.9307 1.90238 -27.8676 -41.2208 26.0365 83.4371 -26.0473 -3.18223 -3.59964 2.14852e-009 1.56018e-007 -4.87132e-009 
41.5155 98.8696 -3.37934 2.13422 50.5304 -124.738 -19.1075 -12.3726 -11.6802 85.817 25.1279 -83.3958 -32.95 15.6845 -9.51561 0.0462048 0.000533403 0.662642 6.53449 28.4506 -11.5882 0.0505295 0.0837399 -0.0260613 17.4832 9.38462 -34.4419 -7.95139e-015 3.18055e-015 3.18055e-015 -74.5665 17.082 -59.6271 -11.3523 32.0719 -85.0448 22.1056 18.7938 -1.86812 34.8592 7.57698 -5.66358 54.0516 -49.1206 25.8186 -15.0268 25.1915 67.9709 21.3767 20.5423 -20.4846 56.8916 4.04987 -27.6698 -42.4277 24.4765 85.7165 -25.9438 -3.39226 -3.74292 2.14851e-009 1.56018e-007 -4.87131e-009 
41.1779 98.583 -1.98845 0.867976 48.1466 -126.42 -17.0408 -10.9197 -14.468 82.5107 31.437 -81.1298 -32.3844 15.7437 -9.13532 0.0462048 0.000533403 0.662642 5.93926 28.6895 -11.5227 -0.0161299 0.00131002 0.00430039 18.9736 8.95234 -36.5479 -6.36111e-015 3.18055e-015 1.27222e-014 -76.2372 16.1391 -59.9103 -10.9308 31.7888 -85.5709 21.9345 18.7465 -1.86946 33.1578 7.44948 -5.12072 55.7734 -50.1879 28.6585 -13.8353 26.8588 71.2313 8.99731 16.589 2.97501 53.0834 5.89606 -27.3929 -43.3353 22.7231 87.7278 -25.6658 -3.52595 -3.76714 2.14852e-009 1.56018e-007 -4.87132e-009 
40.8265 98.315 -0.487188 -0.109385 46.1109 -128.073 -14.4429 -9.12401 -17.7303 77.0219 37.5101 -77.5408 -32.2041 15.295 -8.1883 0.0462048 0.000533403 0.662642 6.45043 29.687 -12.2939 0.0389194 0.0852299 -0.028421 19.5409 7.54111 -37.598 1.59028e-015 0 -3.18055e-015 -78.0354 14.836 -60.718 -10.1254 31.8085 -86.6771 21.966 18.8001 -1.84327 31.0768 6.61329 -3.92438 57.5363 -50.8924 31.4095 -10.7584 28.1177 77.4019 21.2021 21.416 -20.1781 49.5406 7.4474 -27.0162 -43.948 20.8479 89.4614 -25.2734 -3.57505 -3.68332 2.14851e-009 1.56018e-007 -4.87132e-009 
40.4904 98.0432 1.09729 -1.00618 44.2485 -129.751 -11.8646 -7.40137 -21.1176 70.4574 43.1654 -73.2983 -32.0842 14.3556 -6.93293 0.0462048 0.000533403 0.662642 6.89899 30.5728 -12.9863 -0.00351 0.00259 -0.000299916 20.3572 6.34982 -38.6734 3.53113e-031 -6.36111e-015 3.18055e-015 -79.5203 13.6568 -60.9144 -9.22073 31.9709 -88.3125 22.0478 18.8471 -1.78034 29.5066 5.95104 -3.12351 59.4428 -51.3808 34.2693 -8.06483 29.7884 82.8642 25.5429 20.9849 -28.0534 46.093 8.82899 -26.5265 -44.3285 18.8978 91.0213 -24.8266 -3.55009 -3.51955 2.14851e-009 1.56018e-007 -4.87131e-009 
40.1616 97.7664 2.74158 -1.80648 42.5021 -131.474 -9.3706 -5.67195 -24.3751 62.6659 48.0764 -68.0055 -31.7851 12.9653 -5.58312 0.0462048 0.000533403 0.662642 7.27556 31.3428 -13.5902 -0.00676998 -0.00230999 0.00109016 21.2343 5.17149 -39.5997 -1.59028e-015 1.59028e-015 -3.18055e-015 -80.7566 12.4008 -61.1425 -8.4984 32.1101 -89.9966 22.0685 18.8769 -1.69251 28.1108 5.30818 -2.4098 63.5117 -52.2933 39.0654 -6.21001 32.9719 87.4958 24.9889 20.2598 -27.4493 42.722 10.0197 -25.8991 -44.4561 16.8832 92.4056 -24.3298 -3.44362 -3.27695 2.14852e-009 1.56018e-007 -4.87132e-009 
39.8163 97.4866 4.40725 -2.15129 40.3918 -133.839 -7.17887 -4.48121 -27.0002 53.7654 52.0006 -61.6589 -31.1373 11.2032 -4.28188 0.0462048 0.000533403 0.662642 7.51239 31.8192 -13.9503 -0.00619944 0.02352 -0.0118195 21.9475 3.80092 -40.1179 3.18055e-015 0 3.18055e-015 -81.9199 10.9011 -61.8502 -8.02707 32.1817 -91.4817 21.9842 18.8777 -1.59998 26.6532 4.49832 -1.48836 67.7486 -52.7747 43.9697 -4.59823 36.2162 91.4275 21.9713 19.7352 -22.3688 39.1588 10.8579 -24.5247 -44.3261 14.8347 93.6295 -23.8094 -3.24858 -2.96705 2.14852e-009 1.56018e-007 -4.87131e-009 
39.5421 97.6323 6.04132 -2.62732 37.7578 -136.349 -5.48646 -3.51804 -28.7378 42.7229 54.1429 -52.5852 -27.9118 8.789 -3.23627 0.0462048 0.000533403 0.662642 7.2192 32.2621 -13.8204 -0.00425452 0.02912 0.0135295 22.5858 2.43307 -40.1492 1.19271e-015 -1.59028e-015 -0 -83.0885 7.67165 -63.0803 -8.19951 32.1896 -92.0799 21.6018 23.8291 0.8584 24.4183 7.03582 0.687503 77.8287 -53.606 54.3738 -3.02404 39.9032 94.6756 21.109 17.1704 -17.1834 35.0696 11.2436 -22.997 -43.5346 12.9057 94.2979 -23.5379 -2.85371 -2.54971 2.14852e-009 1.56018e-007 -4.87132e-009 
39.2321 97.7897 7.62531 -3.23352 34.645 -138.985 -4.21367 -2.96129 -29.6262 30.9919 54.6876 -42.6218 -23.4154 6.20229 -2.27471 0.0462048 0.000533403 0.662642 6.38531 32.6458 -13.178 -0.00403958 0.02774 0.0160301 23.1504 1.11087 -39.6946 -7.95139e-016 7.95139e-016 3.18055e-015 -84.4655 2.91368 -64.6107 -8.87028 32.2837 -92.1237 20.3779 30.7429 4.45232 20.9025 11.737 3.82538 92.0736 -52.658 68.6182 -1.43524 43.9247 97.1073 20.9413 13.7513 -12.2948 30.5804 11.0544 -21.3991 -42.3705 11.1186 94.5962 -23.5179 -2.30918 -2.10367 2.14852e-009 1.56018e-007 -4.87131e-009 
38.895 97.9753 9.15957 -3.98116 31.0861 -141.728 -3.33802 -2.9058 -29.6526 19.6331 53.7829 -32.8702 -18.7674 3.56301 -1.32516 0.0462048 0.000533403 0.662642 4.98353 32.9329 -12.0134 -0.00834955 0.02722 0.0169302 23.6654 -0.150802 -38.8317 -2.98177e-015 3.97569e-016 -3.18055e-015 -86.2536 -3.04814 -66.3552 -9.85564 32.6368 -91.8106 17.9268 38.1486 8.66857 17.1945 14.3139 6.47021 101.963 -48.3942 78.1092 0.419123 48.1045 98.3365 20.7549 10.2982 -7.65714 25.7723 10.1974 -19.8195 -41.0036 9.46279 94.635 -23.7178 -1.64054 -1.66152 2.14851e-009 1.56018e-007 -4.87131e-009 
38.5516 98.1977 10.6271 -4.95548 26.0284 -144.789 -3.6828 -4.04367 -27.62 10.3864 50.5808 -24.3896 -17.3548 0.753993 -0.459271 0.0462048 0.000533403 0.662642 1.78267 32.9074 -9.22056 -0.0371185 0.0863501 0.0560809 23.9197 -1.45532 -36.9434 3.97569e-016 1.19271e-015 -0 -89.3865 -11.8738 -69.5092 -11.2455 34.2488 -90.0455 12.8257 44.796 11.9318 14.6664 11.2353 7.38438 102.985 -40.4668 77.3068 3.6565 51.4826 95.8027 19.3662 8.21591 -3.31524 20.4102 7.59738 -18.5121 -39.472 8.38035 93.7504 -24.8167 -0.918946 -1.26733 2.14852e-009 1.56018e-007 -4.87131e-009 
37.9824 98.3967 11.1503 -6.10891 19.7921 -148.062 -3.59801 -6.05991 -24.1908 3.66443 44.918 -19.0569 -15.527 0.111351 -0.495046 0.0462048 0.000533403 0.662642 -2.77021 31.1277 -5.8874 -0.0211398 -0.01661 0.00739052 23.5878 -1.116 -34.2107 0 0 -0 -94.2909 -22.4796 -72.8259 -12.6 37.5611 -87.6003 16.995 28.1731 0.939734 12.7229 8.78662 7.66576 102.461 -30.6035 75.2387 8.65459 52.9693 90.1397 17.2338 10.2396 1.76215 15.5462 3.56194 -18.0116 -38.9369 7.79385 92.1783 -27.2252 -0.472843 -1.11601 2.14851e-009 1.56018e-007 -4.87131e-009 
37.4237 98.6122 11.6098 -7.21344 14.6719 -150.864 -3.87557 -7.10135 -20.064 0.392532 39.7434 -17.2854 -14.7036 -0.5538 -0.507487 0.0462048 0.000533403 0.662642 -6.54109 29.3831 -3.12832 -0.01498 -0.01937 0.00082037 22.5693 0.374562 -30.8229 -7.95139e-016 0 6.36111e-015 -101.398 -33.5549 -77.574 -13.6555 42.6173 -84.8874 15.7608 26.9906 -2.03566 11.4013 6.72842 7.5652 101.233 -19.9132 72.9121 14.7279 51.8475 83.0544 17.6693 13.2715 6.76577 11.4157 -0.347407 -18.1569 -37.7388 7.87904 89.2933 -29.9358 -0.154995 -0.990687 2.1485e-009 1.56018e-007 -4.87132e-009 
36.867 98.8702 12.0069 -8.18289 10.5784 -153.222 -4.75483 -7.39742 -15.4835 -0.491795 35.2437 -17.8989 -13.813 -1.21283 -0.575018 0.0462048 0.000533403 0.662642 -9.60718 27.7586 -0.856802 -0.0140902 -0.01555 0.00082037 20.7482 2.85652 -26.847 -7.95139e-016 4.77083e-015 -6.36111e-015 -111.713 -44.1566 -85.2433 -14.3678 49.3337 -82.1262 16.2836 12.3817 -10.2263 10.6212 5.14213 7.41041 100.359 -13.1207 71.715 25.7718 49.6964 74.6405 15.9503 27.3956 -5.72899 7.81419 -3.90252 -18.8223 -35.6897 8.48969 85.3144 -32.8295 0.0648935 -0.856704 2.14852e-009 1.56018e-007 -4.87131e-009 
36.2794 99.1549 12.3491 -8.96391 7.39826 -155.146 -6.25888 -7.32423 -10.6436 0.310201 30.7545 -19.9951 -13.5548 -1.95093 -0.68225 0.0462048 0.000533403 0.662642 -12.0418 26.3095 0.979104 -0.0140902 -0.01367 0.00082037 18.0286 6.05443 -22.2408 0 4.77083e-015 -0 -127.16 -52.9362 -98.108 -20.8638 57.5891 -78.6354 15.8921 11.8974 -11.772 10.3026 3.99364 7.06804 99.683 -8.67683 71.023 30.8471 47.4427 71.0305 19.6858 22.5191 13.5349 4.55522 -6.91154 -19.9064 -32.5979 9.5296 80.502 -35.9097 0.218669 -0.696399 2.14851e-009 1.56018e-007 -4.87131e-009 
35.6274 99.5725 12.6445 -9.52573 4.99955 -156.653 -8.34295 -6.85683 -5.64059 2.52798 25.8722 -23.2174 -14.0417 -2.4272 -0.777317 0.0462048 0.000533403 0.662642 -13.9242 24.6638 2.51236 -0.0140903 -0.00585998 0.00082037 14.367 10.0103 -17.0848 0 1.59028e-015 -0 -148.705 -58.1576 -117.291 -35.35 66.0997 -69.1905 15.8982 6.46243 -13.8794 10.3577 3.58395 6.427 99.213 -5.73747 70.624 32.5454 45.796 69.7119 24.0921 27.7813 0.352496 1.67381 -9.72264 -21.2033 -29.1865 10.6447 75.4195 -34.2155 0.314283 -0.5256 2.14851e-009 1.56018e-007 -4.87131e-009 
34.8417 100.007 12.8874 -9.85984 3.24658 -157.776 -11.0287 -6.24584 -0.552897 5.94712 20.9821 -27.247 -15.1487 -2.80511 -0.886451 0.0462048 0.000533403 0.662642 -15.3148 22.902 3.73713 -0.0140904 -0.000409984 0.00082037 9.67584 14.3477 -11.1154 1.59028e-015 -1.59028e-015 -3.18055e-015 -173.103 -57.9974 -139.757 -64.9603 72.4358 -44.8166 16.1373 8.197 -13.4388 10.6644 3.77644 5.39448 98.9762 -3.60049 70.2686 32.4653 45.194 69.8913 20.6666 28.611 7.56299 -0.910356 -11.8633 -22.742 -26.7006 11.3109 71.4708 -31.5981 0.136085 -0.482116 2.14851e-009 1.56018e-007 -4.87131e-009 
33.923 100.407 13.0648 -9.97573 2.02092 -158.566 -14.2185 -5.59591 4.5521 10.2972 16.1171 -31.7345 -16.7218 -3.10698 -1.01569 0.0462048 0.000533403 0.662642 -16.2826 21.0813 4.68298 -0.0140904 0.00429001 0.00082037 3.82704 18.615 -4.09581 -1.59028e-015 0 6.36111e-015 173.227 -55.4777 -152.508 -92.5698 73.1366 -20.3356 16.4295 6.41363 -14.0753 11.1856 4.44794 4.28235 98.8966 -2.24987 69.9731 31.4157 45.2323 70.7261 22.6198 29.8936 0.480383 -2.39576 -13.1254 -23.3746 -25.2668 11.5647 67.5405 -28.2467 -0.0808704 -0.437188 2.14852e-009 1.56018e-007 -4.87131e-009 
